<svg width="22" height="22" viewBox="0 0 22 22" fill="none" xmlns="http://www.w3.org/2000/svg">
<path d="M10.8608 17.5442C14.552 17.5442 17.5443 14.5519 17.5443 10.8607C17.5443 7.16945 14.552 4.17712 10.8608 4.17712C7.16957 4.17712 4.17725 7.16945 4.17725 10.8607C4.17725 14.5519 7.16957 17.5442 10.8608 17.5442Z" fill="#242748"/>
<path d="M18.7477 1.43526C18.1296 1.02284 17.4343 0.739307 16.6617 0.558874C15.1166 0.223785 13.5457 0.069129 11.9748 0.0175769C9.81162 -0.0597513 7.64843 0.120681 5.51099 0.507322C3.06452 0.945515 1.1331 2.72406 0.592303 5.14702C0.180266 7.05444 0 8.96187 0 11.2302C0 12.7767 0.180266 14.6068 0.515046 16.4112C0.669559 17.2875 1.00434 18.0608 1.46788 18.7568C1.54514 18.8599 1.77691 19.0403 1.98293 18.8599L3.70833 17.1329C4.68692 16.3081 3.55382 14.0655 3.55382 14.0655C3.14178 13.1118 2.93576 12.055 2.93576 10.9724C2.93576 6.5647 6.51533 2.98183 10.919 2.98183C12.0006 2.98183 13.0307 3.18803 13.9577 3.57467C14.1895 3.67778 14.4213 3.78088 14.6531 3.88399C15.4514 4.24485 16.43 4.37373 17.151 3.67778L18.6189 2.20854L18.8249 2.00233C19.0824 1.74457 18.8249 1.51259 18.7477 1.43526Z" fill="#242748"/>
<path d="M20.5649 2.98526C20.9773 3.60295 21.2609 4.29784 21.4413 5.06994C21.7764 6.61415 21.9311 8.18409 21.9826 9.75403C22.0599 11.9159 21.8795 14.0778 21.4929 16.214C21.0547 18.6589 19.2761 20.5892 16.8532 21.1297C14.9457 21.5415 13.0383 21.7216 10.77 21.7216C9.22345 21.7216 7.39335 21.5415 5.58903 21.2069C4.71264 21.0525 3.93936 20.7179 3.2434 20.2546C3.1403 20.1774 2.95987 19.9458 3.1403 19.7399L4.8673 18.0155C5.69213 17.0375 7.93465 18.1699 7.93465 18.1699C8.88836 18.5817 9.94518 18.7876 11.0278 18.7876C15.4355 18.7876 19.0184 15.2102 19.0184 10.8092C19.0184 9.72829 18.8122 8.69882 18.4255 7.7723C18.3224 7.54067 18.2193 7.30904 18.1162 7.07741C17.7553 6.27957 17.6265 5.30157 18.3224 4.58094L19.7916 3.11395L19.9979 2.90805C20.2556 2.62495 20.5134 2.90805 20.5649 2.98526Z" fill="#242748"/>
</svg>
